<svg width="66" height="50" viewBox="0 0 66 50" fill="none" xmlns="http://www.w3.org/2000/svg">
<path d="M65.959 8.45588C66.0766 8.88235 65.9281 9.35294 65.6796 9.72059L57.754 21.5147C57.46 21.9706 56.8424 22.2206 56.3263 22.2206C56.1792 22.2206 55.7675 22.1912 55.6072 22.1471L49.255 20.5882V48.5294C49.255 49.3824 48.6521 50 47.7846 50H16.9058C16.0382 50 15.4353 49.3824 15.4353 48.5294V20.5882L9.7301 22.1618C9.06841 22.3676 8.49494 22.1029 8.12734 21.5294L0.260588 9.76471C0.0106161 9.38235 -0.0629051 8.95588 0.0547286 8.52941C0.157658 8.08824 0.466446 7.79412 0.86346 7.58823L16.9058 0H24.2579C25.1254 0 25.7283 0.602941 25.7283 1.47059C25.7283 4.5 29.9778 6.64706 33.0069 6.64706C36.0359 6.64706 40.4325 4.51471 40.4325 1.47059C40.4325 0.617647 41.0354 0 41.9029 0H49.255L65.1356 7.44118C65.5473 7.64706 65.8414 8.01471 65.959 8.45588Z" fill="#494949"/>
</svg>
