<svg width="36" height="36" viewBox="0 0 36 36" fill="none" xmlns="http://www.w3.org/2000/svg">
<path d="M34.596 18C35.492 16.9047 35.9921 15.4801 36 14C36 12.4087 35.4311 10.8826 34.4184 9.75736C33.4057 8.63214 32.0322 8 30.6 8H21.276C21.5635 7.09635 21.6521 6.12932 21.5342 5.17985C21.4162 4.23039 21.0953 3.32612 20.5983 2.54277C20.1013 1.75941 19.4425 1.11975 18.6773 0.677356C17.9121 0.234958 17.0626 0.00269102 16.2 0H5.4C3.96783 0 2.59432 0.632141 1.58162 1.75736C0.568927 2.88258 0 4.4087 0 6C0.0079391 7.48011 0.50798 8.90473 1.404 10C0.518481 11.1 0.0289224 12.5241 0.0289224 14C0.0289224 15.4759 0.518481 16.9 1.404 18C0.518481 19.1 0.0289224 20.5241 0.0289224 22C0.0289224 23.4759 0.518481 24.9 1.404 26C0.50798 27.0953 0.0079391 28.5199 0 30C0 31.5913 0.568927 33.1174 1.58162 34.2426C2.59432 35.3679 3.96783 36 5.4 36H30.6C31.64 35.9938 32.6562 35.6541 33.5266 35.0217C34.397 34.3892 35.0845 33.491 35.5065 32.4349C35.9286 31.3788 36.0671 30.2097 35.9056 29.0682C35.7441 27.9267 35.2893 26.8613 34.596 26C35.4815 24.9 35.9711 23.4759 35.9711 22C35.9711 20.5241 35.4815 19.1 34.596 18ZM16.2 32H5.4C4.92261 32 4.46477 31.7893 4.12721 31.4142C3.78964 31.0391 3.6 30.5304 3.6 30C3.6 29.4696 3.78964 28.9609 4.12721 28.5858C4.46477 28.2107 4.92261 28 5.4 28H16.2C16.6774 28 17.1352 28.2107 17.4728 28.5858C17.8104 28.9609 18 29.4696 18 30C18 30.5304 17.8104 31.0391 17.4728 31.4142C17.1352 31.7893 16.6774 32 16.2 32ZM16.2 24H5.4C4.92261 24 4.46477 23.7893 4.12721 23.4142C3.78964 23.0391 3.6 22.5304 3.6 22C3.6 21.4696 3.78964 20.9609 4.12721 20.5858C4.46477 20.2107 4.92261 20 5.4 20H16.2C16.6774 20 17.1352 20.2107 17.4728 20.5858C17.8104 20.9609 18 21.4696 18 22C18 22.5304 17.8104 23.0391 17.4728 23.4142C17.1352 23.7893 16.6774 24 16.2 24ZM16.2 16H5.4C4.92261 16 4.46477 15.7893 4.12721 15.4142C3.78964 15.0391 3.6 14.5304 3.6 14C3.6 13.4696 3.78964 12.9609 4.12721 12.5858C4.46477 12.2107 4.92261 12 5.4 12H16.2C16.6774 12 17.1352 12.2107 17.4728 12.5858C17.8104 12.9609 18 13.4696 18 14C18 14.5304 17.8104 15.0391 17.4728 15.4142C17.1352 15.7893 16.6774 16 16.2 16ZM16.2 8H5.4C4.92261 8 4.46477 7.78929 4.12721 7.41421C3.78964 7.03914 3.6 6.53043 3.6 6C3.6 5.46957 3.78964 4.96086 4.12721 4.58579C4.46477 4.21071 4.92261 4 5.4 4H16.2C16.6774 4 17.1352 4.21071 17.4728 4.58579C17.8104 4.96086 18 5.46957 18 6C18 6.53043 17.8104 7.03914 17.4728 7.41421C17.1352 7.78929 16.6774 8 16.2 8ZM31.842 31.42C31.6824 31.607 31.4896 31.7551 31.2758 31.855C31.062 31.9548 30.8319 32.0042 30.6 32H21.276C21.7076 30.7098 21.7076 29.2902 21.276 28H30.6C31.0774 28 31.5352 28.2107 31.8728 28.5858C32.2104 28.9609 32.4 29.4696 32.4 30C32.3967 30.266 32.3456 30.5287 32.2498 30.7725C32.154 31.0163 32.0153 31.2364 31.842 31.42ZM31.842 23.42C31.6824 23.607 31.4896 23.7551 31.2758 23.855C31.062 23.9548 30.8319 24.0042 30.6 24H21.276C21.7076 22.7098 21.7076 21.2902 21.276 20H30.6C31.0774 20 31.5352 20.2107 31.8728 20.5858C32.2104 20.9609 32.4 21.4696 32.4 22C32.3967 22.266 32.3456 22.5287 32.2498 22.7725C32.154 23.0163 32.0153 23.2364 31.842 23.42ZM31.842 15.42C31.6824 15.607 31.4896 15.7551 31.2758 15.855C31.062 15.9548 30.8319 16.0042 30.6 16H21.276C21.7076 14.7098 21.7076 13.2902 21.276 12H30.6C31.0774 12 31.5352 12.2107 31.8728 12.5858C32.2104 12.9609 32.4 13.4696 32.4 14C32.3967 14.266 32.3456 14.5287 32.2498 14.7725C32.154 15.0163 32.0153 15.2364 31.842 15.42Z" fill="#494949"/>
</svg>
