<svg width="62" height="38" viewBox="0 0 62 38" fill="none" xmlns="http://www.w3.org/2000/svg">
<path d="M58.9 0H3.1C2.27783 0 1.48933 0.285969 0.907969 0.794996C0.326606 1.30402 0 1.99441 0 2.71429V13.5714H2.7683C5.8559 13.5714 8.7203 15.4199 9.2163 18.088C9.3674 18.8671 9.32251 19.6657 9.08475 20.428C8.84699 21.1904 8.4221 21.8981 7.83972 22.5018C7.25735 23.1056 6.53152 23.5908 5.71289 23.9235C4.89426 24.2563 4.00255 24.4287 3.1 24.4286H0V35.2857C0 36.0056 0.326606 36.696 0.907969 37.205C1.48933 37.714 2.27783 38 3.1 38H58.9C59.7222 38 60.5107 37.714 61.092 37.205C61.6734 36.696 62 36.0056 62 35.2857V24.4286H58.9C57.9974 24.4287 57.1057 24.2563 56.2871 23.9235C55.4685 23.5908 54.7426 23.1056 54.1603 22.5018C53.5779 21.8981 53.153 21.1904 52.9152 20.428C52.6775 19.6657 52.6326 18.8671 52.7837 18.088C53.2797 15.4199 56.1441 13.5714 59.2317 13.5714H62V2.71429C62 1.99441 61.6734 1.30402 61.092 0.794996C60.5107 0.285969 59.7222 0 58.9 0ZM27.9 32.5714H21.7V27.1429H27.9V32.5714ZM27.9 21.7143H21.7V16.2857H27.9V21.7143ZM27.9 10.8571H21.7V5.42857H27.9V10.8571Z" fill="#B0E6CE"/>
</svg>
