<svg width="52" height="31" viewBox="0 0 52 31" fill="none" xmlns="http://www.w3.org/2000/svg">
<path d="M48.7891 0.0473633H3.41183C2.74323 0.0473633 2.10201 0.278145 1.62924 0.688939C1.15647 1.09973 0.890869 1.65689 0.890869 2.23784V10.9997H3.14209C5.65296 10.9997 7.98233 12.4915 8.38568 14.6447C8.50856 15.2734 8.47205 15.9179 8.27871 16.5331C8.08536 17.1484 7.73983 17.7195 7.26624 18.2067C6.79264 18.694 6.20239 19.0855 5.53667 19.3541C4.87095 19.6226 4.1458 19.7617 3.41183 19.7616H0.890869V28.5236C0.890869 29.1045 1.15647 29.6617 1.62924 30.0725C2.10201 30.4832 2.74323 30.714 3.41183 30.714H48.7891C49.4577 30.714 50.0989 30.4832 50.5717 30.0725C51.0445 29.6617 51.3101 29.1045 51.3101 28.5236V19.7616H48.7891C48.0551 19.7617 47.33 19.6226 46.6643 19.3541C45.9986 19.0855 45.4083 18.694 44.9347 18.2067C44.4611 17.7195 44.1156 17.1484 43.9222 16.5331C43.7289 15.9179 43.6924 15.2734 43.8153 14.6447C44.2186 12.4915 46.548 10.9997 49.0589 10.9997H51.3101V2.23784C51.3101 1.65689 51.0445 1.09973 50.5717 0.688939C50.0989 0.278145 49.4577 0.0473633 48.7891 0.0473633ZM23.5795 26.3331H18.5376V21.9521H23.5795V26.3331ZM23.5795 17.5712H18.5376V13.1902H23.5795V17.5712ZM23.5795 8.80927H18.5376V4.42832H23.5795V8.80927Z" fill="#494949"/>
</svg>
