<svg width="82" height="57" viewBox="0 0 82 57" fill="none" xmlns="http://www.w3.org/2000/svg">
<path d="M82 31.0909V33.6818C82 34.3295 81.9466 34.8288 81.8398 35.1797C81.7331 35.5305 81.5329 35.7869 81.2393 35.9489C80.9456 36.1108 80.6921 36.2053 80.4785 36.2322C80.265 36.2592 79.918 36.2727 79.4375 36.2727C77.7292 36.2727 76.6881 36.0028 76.3145 35.4631L71.75 31.0909L52.9316 41.1307C51.2233 42.804 49.1546 44.1399 46.7256 45.1385C44.2966 46.1371 42.0677 46.6364 40.0391 46.6364H35.875V51.8182H53.8125C54.5065 51.8182 55.1071 52.0746 55.6143 52.5874C56.1214 53.1001 56.375 53.7074 56.375 54.4091C56.375 55.1108 56.1214 55.718 55.6143 56.2308C55.1071 56.7436 54.5065 57 53.8125 57H7.6875C6.24609 57 4.60449 56.0689 2.7627 54.2067C0.920898 52.3445 0 50.6847 0 49.2273C0 48.5795 0.0934245 48.0668 0.280273 47.6889C0.467122 47.3111 0.814128 47.0547 1.32129 46.9197C1.82845 46.7848 2.26888 46.7038 2.64258 46.6768C3.01628 46.6499 3.63021 46.6364 4.48438 46.6364H5.125C5.125 48.0938 5.61881 49.3217 6.60645 50.3203C7.59408 51.3189 8.80859 51.8182 10.25 51.8182H15.375V46.6364H13.8535C11.6113 46.6364 9.71615 46.0561 8.16797 44.8956C6.61979 43.7351 5.64551 42.0078 5.24512 39.7138C4.84473 37.4197 5.55208 34.5455 7.36719 31.0909L12.8125 20.7273C13.7734 19.1619 15.335 17.907 17.4971 16.9624C19.6592 16.0178 21.7812 15.5455 23.8633 15.5455H30.75V10.3636H7.6875C6.99349 10.3636 6.3929 10.1072 5.88574 9.59446C5.37858 9.08168 5.125 8.47443 5.125 7.77273C5.125 7.07102 5.37858 6.46378 5.88574 5.95099C6.3929 5.43821 6.99349 5.18182 7.6875 5.18182H30.75V2.59091C30.75 1.8892 31.0036 1.28196 31.5107 0.769176C32.0179 0.256392 32.6185 0 33.3125 0C34.0065 0 34.6071 0.256392 35.1143 0.769176C35.6214 1.28196 35.875 1.8892 35.875 2.59091V5.18182H58.9375C59.6315 5.18182 60.2321 5.43821 60.7393 5.95099C61.2464 6.46378 61.5 7.07102 61.5 7.77273C61.5 8.47443 61.2464 9.08168 60.7393 9.59446C60.2321 10.1072 59.6315 10.3636 58.9375 10.3636H35.875V15.5455H44.9238C46.8991 15.5455 48.7275 16.0717 50.4092 17.1243C52.0908 18.1768 53.1986 19.4858 53.7324 21.0511L55.334 28.7429L71.75 20.7273L76.3145 11.5781C76.6881 10.7685 77.7292 10.3636 79.4375 10.3636C79.918 10.3636 80.265 10.3771 80.4785 10.4041C80.6921 10.4311 80.9456 10.5256 81.2393 10.6875C81.5329 10.8494 81.7331 11.1058 81.8398 11.4567C81.9466 11.8075 82 12.3068 82 12.9545V15.5455C80.5586 15.5455 79.3441 16.3011 78.3564 17.8125C77.3688 19.3239 76.875 21.1591 76.875 23.3182C76.875 25.4773 77.3688 27.3125 78.3564 28.8239C79.3441 30.3352 80.5586 31.0909 82 31.0909ZM20.5 51.8182H30.75V46.6364H20.5V51.8182ZM35.875 25.9091C35.875 24.4517 35.3678 23.2237 34.3535 22.2251C33.3392 21.2266 32.1113 20.7273 30.6699 20.7273H25.625C23.1693 20.7273 21.4076 21.5909 20.3398 23.3182L15.8555 31.0909C15.1615 33.0881 15.1882 34.451 15.9355 35.1797C16.6829 35.9084 18.151 36.2727 20.3398 36.2727H30.6699C32.1113 36.2727 33.3392 35.7599 34.3535 34.7344C35.3678 33.7088 35.875 32.4943 35.875 31.0909V25.9091Z" fill="#494949"/>
</svg>
