<svg width="76" height="68" viewBox="0 0 76 68" fill="none" xmlns="http://www.w3.org/2000/svg">
<path d="M51.3 68L45.6 18.8889H54.074L49.78 1.73778L56.392 0L61.142 18.8889H76L70.3 68H51.3ZM11.4 30.2222H30.4C33.4235 30.2222 36.3231 31.4163 38.461 33.5417C40.5989 35.6671 41.8 38.5498 41.8 41.5556H0C0 38.5498 1.20107 35.6671 3.33898 33.5417C5.4769 31.4163 8.37653 30.2222 11.4 30.2222ZM41.8 56.6667C41.8 59.6725 40.5989 62.5551 38.461 64.6805C36.3231 66.806 33.4235 68 30.4 68H11.4C8.37653 68 5.4769 66.806 3.33898 64.6805C1.20107 62.5551 0 59.6725 0 56.6667H41.8ZM3.8 45.3333H22.8L28.5 51L34.2 45.3333H38C39.0078 45.3333 39.9744 45.7313 40.687 46.4398C41.3996 47.1483 41.8 48.1092 41.8 49.1111C41.8 50.113 41.3996 51.0739 40.687 51.7824C39.9744 52.4909 39.0078 52.8889 38 52.8889H3.8C2.79218 52.8889 1.82563 52.4909 1.11299 51.7824C0.400356 51.0739 0 50.113 0 49.1111C0 48.1092 0.400356 47.1483 1.11299 46.4398C1.82563 45.7313 2.79218 45.3333 3.8 45.3333Z" fill="#494949"/>
</svg>
