<svg width="59" height="65" viewBox="0 0 59 65" fill="none" xmlns="http://www.w3.org/2000/svg">
<path d="M51.9583 0.416748H26.2917C24.5899 0.416748 22.9578 1.09279 21.7544 2.29615C20.551 3.4995 19.875 5.13161 19.875 6.83342V26.0834H7.04167C3.50287 26.0834 0.625 28.9613 0.625 32.5001V61.3751C0.625 62.226 0.96302 63.042 1.5647 63.6437C2.16638 64.2454 2.98243 64.5834 3.83333 64.5834H55.1667C56.0176 64.5834 56.8336 64.2454 57.4353 63.6437C58.037 63.042 58.375 62.226 58.375 61.3751V6.83342C58.375 5.13161 57.699 3.4995 56.4956 2.29615C55.2922 1.09279 53.6601 0.416748 51.9583 0.416748ZM7.04167 58.1668V32.5001H26.2917V58.1668H7.04167ZM35.9167 19.6667H29.5V13.2501H35.9167V19.6667ZM48.75 45.3334H42.3333V38.9167H48.75V45.3334ZM48.75 32.5001H42.3333V26.0834H48.75V32.5001ZM48.75 19.6667H42.3333V13.2501H48.75V19.6667Z" fill="#494949"/>
</svg>
