<svg width="62" height="62" viewBox="0 0 62 62" fill="none" xmlns="http://www.w3.org/2000/svg">
<path d="M59.6667 21.3734C57.4586 16.0542 53.8158 11.4532 49.1448 8.08405C44.4738 4.71486 38.9585 2.70998 33.2143 2.29317V0H28.7857V2.29317C20.9623 2.83965 13.6383 6.33648 8.29463 12.0766C2.95092 17.8167 -0.0137539 25.3718 4.79744e-05 33.2143V36.3309L1.69536 34.7795C3.16609 33.3187 5.11166 32.4334 7.1792 32.2841C9.24674 32.1348 11.2993 32.7314 12.9647 33.9658L12.9951 33.9893C13.1252 34.082 13.2539 34.1775 13.3785 34.2799C13.5713 34.4358 13.7558 34.6024 13.932 34.7795L15.5 36.3461L17.0652 34.7795C18.5369 33.3208 20.4827 32.438 22.5495 32.2912C24.6164 32.1445 26.6674 32.7435 28.3304 33.9796L28.7857 34.3214V55.3571C28.7857 55.9444 28.5524 56.5076 28.1372 56.9229C27.7219 57.3381 27.1587 57.5714 26.5714 57.5714C25.9842 57.5714 25.421 57.3381 25.0057 56.9229C24.5904 56.5076 24.3572 55.9444 24.3572 55.3571V53.1429H19.9286V55.3571C19.9286 57.1189 20.6285 58.8086 21.8742 60.0544C23.12 61.3001 24.8096 62 26.5714 62C28.3332 62 30.0229 61.3001 31.2686 60.0544C32.5144 58.8086 33.2143 57.1189 33.2143 55.3571V34.3214L33.6696 33.9796C35.3326 32.7435 37.3836 32.1445 39.4505 32.2912C41.5173 32.438 43.4631 33.3208 44.9348 34.7795L46.5 36.3461L48.0652 34.7795C48.2451 34.6005 48.4319 34.4326 48.6257 34.2758C48.7323 34.19 48.8402 34.1083 48.9495 34.028L48.9855 33.999C52.3941 31.4429 57.2891 31.7667 60.3074 34.7795L62 36.3295V33.2143C62.0068 29.1524 61.2139 25.129 59.6667 21.3734Z" fill="#494949"/>
</svg>
