<svg width="32" height="32" viewBox="0 0 32 32" fill="none" xmlns="http://www.w3.org/2000/svg">
<path d="M19.39 22.0325L23.9225 17.5H7V14H23.9225L19.39 9.4675L21.875 7L30.625 15.75L21.875 24.5L19.39 22.0325ZM28 0C28.9283 0 29.8185 0.368749 30.4749 1.02513C31.1313 1.6815 31.5 2.57174 31.5 3.5V11.6725L28 8.1725V3.5H3.5V28H28V23.3275L31.5 19.8275V28C31.5 28.9283 31.1313 29.8185 30.4749 30.4749C29.8185 31.1313 28.9283 31.5 28 31.5H3.5C2.57174 31.5 1.6815 31.1313 1.02513 30.4749C0.368749 29.8185 0 28.9283 0 28V3.5C0 1.5575 1.5575 0 3.5 0H28Z" fill="#B0E6CE"/>
</svg>
