<svg width="64" height="66" viewBox="0 0 64 66" fill="none" xmlns="http://www.w3.org/2000/svg">
<path d="M64 41.8508C64 40.6531 63.3599 39.5553 62.3491 38.8899L37.0466 23.2874V4.99015C37.0466 2.22894 34.7892 0 31.9928 0C29.1964 0 26.9391 2.22894 26.9391 4.99015V23.2874L1.63653 38.8899C0.915325 39.3437 0.38501 40.0401 0.143726 40.8502C-0.0975572 41.6603 -0.0334742 42.5293 0.324117 43.2964C0.681708 44.0635 1.3086 44.6766 2.08877 45.0225C2.86894 45.3683 3.74958 45.4234 4.56771 45.1775L26.9391 38.2578V56.5551L20.8745 61.0462C20.6613 61.1974 20.4885 61.3975 20.3711 61.6294C20.2537 61.8612 20.1952 62.1178 20.2007 62.3769V64.3397C20.2007 65.4376 21.2788 66.236 22.357 65.9366L31.9928 63.2086L41.6287 65.9366C42.7068 66.236 43.7849 65.4376 43.7849 64.3397V62.3769C43.7904 62.1178 43.732 61.8612 43.6146 61.6294C43.4972 61.3975 43.3244 61.1974 43.1111 61.0462L37.0466 56.5551V38.2578L59.4179 45.1775C61.709 45.8761 64 44.1795 64 41.8508Z" fill="#494949"/>
</svg>
