<svg width="50" height="53" viewBox="0 0 50 53" fill="none" xmlns="http://www.w3.org/2000/svg">
<path d="M16.15 33.6411L12.625 37.5742L9.2 33.7526C6.99472 36.9046 5.59523 40.6639 5.15 44.6316H10V50.2105H0V47.4211C0 33.92 8.6 22.6784 20 20.0842V14.5053L0 5.57895V0H50V5.57895L30 14.5053V20.0842C41.4 22.6784 50 33.92 50 47.4211V50.2105H40V44.6316H44.85C44.4048 40.6639 43.0053 36.9046 40.8 33.7526L37.375 37.5742L33.85 33.6411L37.275 29.7916C34.4408 27.3306 31.0636 25.7693 27.5 25.2726V30.6842H22.5V25.2726C18.85 25.7747 15.5 27.3926 12.725 29.7916L16.15 33.6411ZM25 41.8421C26.3261 41.8421 27.5979 42.4299 28.5355 43.4761C29.4732 44.5224 30 45.9414 30 47.4211C30 48.9007 29.4732 50.3197 28.5355 51.366C27.5979 52.4122 26.3261 53 25 53C24.2 53 23.45 52.8047 22.8 52.4142L13.175 47.4211L22.8 42.4279C23.45 42.0374 24.2 41.8421 25 41.8421Z" fill="#B0E6CE"/>
</svg>
