<svg width="32" height="34" viewBox="0 0 32 34" fill="none" xmlns="http://www.w3.org/2000/svg">
<path d="M10.336 21.5811L8.08 24.1042L5.888 21.6526C4.47662 23.6746 3.58095 26.0862 3.296 28.6316H6.4V32.2105H0V30.4211C0 21.76 5.504 14.5484 12.8 12.8842V9.30526L0 3.57895V0H32V3.57895L19.2 9.30526V12.8842C26.496 14.5484 32 21.76 32 30.4211V32.2105H25.6V28.6316H28.704C28.4191 26.0862 27.5234 23.6746 26.112 21.6526L23.92 24.1042L21.664 21.5811L23.856 19.1116C22.0421 17.5328 19.8807 16.5312 17.6 16.2126V19.6842H14.4V16.2126C12.064 16.5347 9.92 17.5726 8.144 19.1116L10.336 21.5811V21.5811ZM16 26.8421C16.8487 26.8421 17.6626 27.2192 18.2627 27.8904C18.8629 28.5615 19.2 29.4719 19.2 30.4211C19.2 31.3702 18.8629 32.2806 18.2627 32.9517C17.6626 33.6229 16.8487 34 16 34C15.488 34 15.008 33.8747 14.592 33.6242L8.432 30.4211L14.592 27.2179C15.008 26.9674 15.488 26.8421 16 26.8421Z" fill="#494949"/>
</svg>
