<svg width="31" height="33" viewBox="0 0 31 33" fill="none" xmlns="http://www.w3.org/2000/svg">
<path d="M10.013 20.9463L7.8275 23.3953L5.704 21.0158C4.33673 22.9783 3.46904 25.319 3.193 27.7895H6.2V31.2632H0V29.5263C0 21.12 5.332 14.1205 12.4 12.5053V9.03158L0 3.47368V0H31V3.47368L18.6 9.03158V12.5053C25.668 14.1205 31 21.12 31 29.5263V31.2632H24.8V27.7895H27.807C27.531 25.319 26.6633 22.9783 25.296 21.0158L23.1725 23.3953L20.987 20.9463L23.1105 18.5495C21.3533 17.0171 19.2594 16.045 17.05 15.7358V19.1053H13.95V15.7358C11.687 16.0484 9.61 17.0558 7.8895 18.5495L10.013 20.9463V20.9463ZM15.5 26.0526C16.3222 26.0526 17.1107 26.4186 17.692 27.0701C18.2734 27.7215 18.6 28.605 18.6 29.5263C18.6 30.4476 18.2734 31.3311 17.692 31.9826C17.1107 32.634 16.3222 33 15.5 33C15.004 33 14.539 32.8784 14.136 32.6353L8.1685 29.5263L14.136 26.4174C14.539 26.1742 15.004 26.0526 15.5 26.0526Z" fill="#B0E6CE"/>
</svg>
