<svg width="354" height="370" viewBox="0 0 354 370" fill="none" xmlns="http://www.w3.org/2000/svg">
<path d="M136.939 370C212.569 370 273.878 359.182 273.878 345.836C273.878 332.491 212.569 321.672 136.939 321.672C61.3098 321.672 0 332.491 0 345.836C0 359.182 61.3098 370 136.939 370Z" fill="#B0E6CE"/>
<path d="M220.168 267.358C294.081 267.358 354 207.508 354 133.679C354 59.8501 294.081 0 220.168 0C146.255 0 86.3359 59.8501 86.3359 133.679C86.3359 207.508 146.255 267.358 220.168 267.358Z" fill="#B0E6CE"/>
<path opacity="0.05" d="M220.168 244.035C281.186 244.035 330.651 194.627 330.651 133.679C330.651 72.7309 281.186 23.3228 220.168 23.3228C159.15 23.3228 109.686 72.7309 109.686 133.679C109.686 194.627 159.15 244.035 220.168 244.035Z" fill="black"/>
<path opacity="0.05" d="M220.168 224.126C270.177 224.126 310.718 183.631 310.718 133.679C310.718 83.7267 270.177 43.2324 220.168 43.2324C170.159 43.2324 129.618 83.7267 129.618 133.679C129.618 183.631 170.159 224.126 220.168 224.126Z" fill="black"/>
<path opacity="0.05" d="M220.168 198.527C256.024 198.527 285.091 169.494 285.091 133.679C285.091 97.8642 256.024 68.8306 220.168 68.8306C184.312 68.8306 155.245 97.8642 155.245 133.679C155.245 169.494 184.312 198.527 220.168 198.527Z" fill="black"/>
<path d="M87.5213 145.642C87.5213 145.642 76.9995 175.225 81.6759 185.735C86.3522 196.245 93.7565 206.366 93.7565 206.366C93.7565 206.366 91.0286 147.588 87.5213 145.642Z" fill="#D0CDE1"/>
<path opacity="0.1" d="M87.5213 145.642C87.5213 145.642 76.9995 175.225 81.6759 185.735C86.3522 196.245 93.7565 206.366 93.7565 206.366C93.7565 206.366 91.0286 147.588 87.5213 145.642Z" fill="black"/>
<path d="M94.9256 214.151C94.9256 214.151 94.1462 221.546 93.7565 221.936C93.3668 222.325 94.1462 223.103 93.7565 224.271C93.3668 225.439 92.9771 226.996 93.7565 227.385C94.5359 227.774 89.4698 262.029 89.4698 262.029C89.4698 262.029 76.9994 278.377 82.0655 304.068L83.6243 330.148C83.6243 330.148 95.705 330.927 95.705 326.645C95.705 326.645 94.9256 321.584 94.9256 319.249C94.9256 316.913 96.8741 316.913 95.705 315.746C94.5359 314.578 94.5359 313.799 94.5359 313.799C94.5359 313.799 96.4844 312.242 96.0947 311.853C95.705 311.464 99.602 283.827 99.602 283.827C99.602 283.827 103.889 279.545 103.889 277.21V274.874C103.889 274.874 105.837 269.814 105.837 269.425C105.837 269.035 116.359 245.291 116.359 245.291L120.646 262.418L125.322 286.941C125.322 286.941 127.66 309.128 132.337 317.692C132.337 317.692 140.52 345.718 140.52 344.94C140.52 344.161 154.16 342.215 153.77 338.712C153.38 335.208 145.586 286.162 145.586 286.162L147.535 213.372L94.9256 214.151Z" fill="#2F2E41"/>
<path d="M84.4037 328.202C84.4037 328.202 73.8818 348.832 80.8964 349.611C87.911 350.389 90.6389 350.389 93.7564 347.275C95.4608 345.573 98.9123 343.289 101.691 341.568C103.338 340.564 104.668 339.118 105.529 337.394C106.39 335.67 106.748 333.739 106.56 331.821C106.355 329.917 105.642 328.348 103.889 328.202C99.2122 327.813 93.7564 323.531 93.7564 323.531L84.4037 328.202Z" fill="#2F2E41"/>
<path d="M142.469 343.382C142.469 343.382 131.947 364.013 138.962 364.791C145.976 365.57 148.704 365.57 151.822 362.456C153.526 360.753 156.977 358.469 159.756 356.748C161.403 355.745 162.733 354.299 163.594 352.575C164.455 350.851 164.813 348.92 164.625 347.002C164.42 345.098 163.707 343.528 161.954 343.382C157.277 342.993 151.822 338.711 151.822 338.711L142.469 343.382Z" fill="#2F2E41"/>
<path d="M131.348 111.881C140.396 111.881 147.73 104.555 147.73 95.5185C147.73 86.4816 140.396 79.1558 131.348 79.1558C122.301 79.1558 114.967 86.4816 114.967 95.5185C114.967 104.555 122.301 111.881 131.348 111.881Z" fill="#FFB8B8"/>
<path d="M120.818 100.895C120.818 100.895 109.116 122.4 108.18 122.4C107.244 122.4 129.242 129.412 129.242 129.412C129.242 129.412 135.327 108.842 136.263 106.972L120.818 100.895Z" fill="#FFB8B8"/>
<path d="M138.767 124.428C138.767 124.428 115.385 111.582 113.047 111.972C110.708 112.361 85.7676 134.159 86.1574 143.112C86.5471 152.065 89.6646 166.856 89.6646 166.856C89.6646 166.856 90.8337 208.117 93.1719 208.506C95.5101 208.896 92.7822 215.902 93.5616 215.902C94.341 215.902 148.119 215.902 148.509 214.734C148.899 213.567 138.767 124.428 138.767 124.428Z" fill="#D0CDE1"/>
<path d="M151.822 216.875C151.822 216.875 159.226 239.452 152.991 238.674C146.756 237.895 144.028 219.211 144.028 219.211L151.822 216.875Z" fill="#FFB8B8"/>
<path d="M131.947 123.066C131.947 123.066 117.528 126.18 119.866 145.642C122.205 165.105 126.491 184.568 126.491 184.568L140.91 216.097L142.469 221.936L152.991 219.211L145.197 174.058C145.197 174.058 142.469 125.79 138.962 124.233C136.75 123.292 134.345 122.891 131.947 123.066V123.066Z" fill="#D0CDE1"/>
<path opacity="0.1" d="M123.179 183.984L141.105 215.902L126.002 182.269L123.179 183.984Z" fill="black"/>
<path d="M147.657 90.7004L147.711 89.45L150.202 90.0691C150.175 89.6677 150.061 89.2768 149.869 88.9236C149.676 88.5703 149.409 88.263 149.086 88.0228L151.738 87.8747C149.513 84.7153 146.669 82.0393 143.379 80.0083C140.089 77.9773 136.421 76.6335 132.596 76.058C126.858 75.2274 120.47 76.4294 116.535 80.6827C114.627 82.7457 113.428 85.3693 112.575 88.0458C111.004 92.9754 110.684 98.8518 113.96 102.859C117.289 106.931 123.105 107.729 128.344 108.233C130.188 108.41 132.12 108.575 133.828 107.861C134.018 105.904 133.767 103.929 133.094 102.081C132.814 101.509 132.68 100.876 132.704 100.24C132.937 98.6826 135.016 98.2903 136.578 98.5007C138.14 98.7111 140.018 99.0329 141.044 97.8381C141.751 97.0152 141.71 95.8168 141.803 94.7364C142.058 91.7951 147.631 91.317 147.657 90.7004Z" fill="#2F2E41"/>
<path d="M248.133 349.161C258.675 349.161 267.22 340.626 267.22 330.096C267.22 319.567 258.675 311.031 248.133 311.031C237.592 311.031 229.046 319.567 229.046 330.096C229.046 340.626 237.592 349.161 248.133 349.161Z" fill="#219653"/>
<path d="M23.97 342.51C34.5115 342.51 43.0571 333.975 43.0571 323.445C43.0571 312.916 34.5115 304.38 23.97 304.38C13.4284 304.38 4.88281 312.916 4.88281 323.445C4.88281 333.975 13.4284 342.51 23.97 342.51Z" fill="#219653"/>
<path d="M23.97 311.917C31.5697 311.917 37.7305 305.764 37.7305 298.173C37.7305 290.581 31.5697 284.428 23.97 284.428C16.3703 284.428 10.2095 290.581 10.2095 298.173C10.2095 305.764 16.3703 311.917 23.97 311.917Z" fill="#219653"/>
<path d="M23.9699 286.645C29.3632 286.645 33.7354 282.278 33.7354 276.891C33.7354 271.503 29.3632 267.136 23.9699 267.136C18.5765 267.136 14.2043 271.503 14.2043 276.891C14.2043 282.278 18.5765 286.645 23.9699 286.645Z" fill="#219653"/>
</svg>
